<mxfile host="Electron" agent="Mozilla/5.0 (Macintosh; Intel Mac OS X 10_15_7) AppleWebKit/537.36 (KHTML, like Gecko) draw.io/26.0.7 Chrome/128.0.6613.186 Electron/32.2.5 Safari/537.36" version="26.0.7">
  <diagram name="Page-1" id="X-0zR2n6bwFsUzx7bmRR">
    <mxGraphModel dx="1114" dy="1213" grid="1" gridSize="10" guides="1" tooltips="1" connect="1" arrows="1" fold="1" page="1" pageScale="1" pageWidth="850" pageHeight="1100" background="#ffffff" math="0" shadow="0">
      <root>
        <mxCell id="0" />
        <mxCell id="1" parent="0" />
        <mxCell id="7vCb-fMm4ji55Pu-p20Z-18" value="" style="edgeStyle=orthogonalEdgeStyle;rounded=0;orthogonalLoop=1;jettySize=auto;html=1;endArrow=none;endFill=0;strokeColor=#000000;" parent="1" target="7vCb-fMm4ji55Pu-p20Z-1" edge="1">
          <mxGeometry relative="1" as="geometry">
            <mxPoint x="475" y="527" as="sourcePoint" />
            <mxPoint x="380" y="400" as="targetPoint" />
            <Array as="points">
              <mxPoint x="440" y="527" />
              <mxPoint x="440" y="399" />
            </Array>
          </mxGeometry>
        </mxCell>
        <mxCell id="7vCb-fMm4ji55Pu-p20Z-1" value="" style="shape=mxgraph.cisco.security.firewall;sketch=0;html=1;pointerEvents=1;dashed=0;fillColor=#036897;strokeColor=#ffffff;strokeWidth=2;verticalLabelPosition=bottom;verticalAlign=top;align=center;outlineConnect=0;" parent="1" vertex="1">
          <mxGeometry x="330" y="350" width="50" height="97" as="geometry" />
        </mxCell>
        <mxCell id="7vCb-fMm4ji55Pu-p20Z-11" value="" style="edgeStyle=orthogonalEdgeStyle;rounded=0;orthogonalLoop=1;jettySize=auto;html=1;endArrow=none;endFill=0;strokeColor=#000000;" parent="1" edge="1">
          <mxGeometry relative="1" as="geometry">
            <mxPoint x="487" y="398" as="sourcePoint" />
            <mxPoint x="380" y="400" as="targetPoint" />
            <Array as="points">
              <mxPoint x="380" y="398" />
            </Array>
          </mxGeometry>
        </mxCell>
        <mxCell id="7vCb-fMm4ji55Pu-p20Z-3" value="" style="shape=mxgraph.cisco.servers.fileserver;sketch=0;html=1;pointerEvents=1;dashed=0;fillColor=#036897;strokeColor=#ffffff;strokeWidth=2;verticalLabelPosition=bottom;verticalAlign=top;align=center;outlineConnect=0;" parent="1" vertex="1">
          <mxGeometry x="487" y="363" width="43" height="62" as="geometry" />
        </mxCell>
        <mxCell id="7vCb-fMm4ji55Pu-p20Z-4" value="" style="shape=mxgraph.cisco.computers_and_peripherals.pc;sketch=0;html=1;pointerEvents=1;dashed=0;fillColor=#036897;strokeColor=#ffffff;strokeWidth=2;verticalLabelPosition=bottom;verticalAlign=top;align=center;outlineConnect=0;" parent="1" vertex="1">
          <mxGeometry x="469.5" y="477" width="78" height="70" as="geometry" />
        </mxCell>
        <mxCell id="7vCb-fMm4ji55Pu-p20Z-7" value="" style="shape=mxgraph.cisco.storage.cloud;sketch=0;html=1;pointerEvents=1;fillColor=#036897;strokeColor=#ffffff;strokeWidth=2;verticalLabelPosition=bottom;verticalAlign=top;align=center;outlineConnect=0;" parent="1" vertex="1">
          <mxGeometry x="80" y="547" width="186" height="106" as="geometry" />
        </mxCell>
        <mxCell id="7vCb-fMm4ji55Pu-p20Z-20" value="" style="edgeStyle=orthogonalEdgeStyle;rounded=0;orthogonalLoop=1;jettySize=auto;html=1;endArrow=none;endFill=0;exitX=0;exitY=0.5;exitDx=0;exitDy=0;exitPerimeter=0;strokeColor=#000000;" parent="1" source="7vCb-fMm4ji55Pu-p20Z-1" target="7vCb-fMm4ji55Pu-p20Z-7" edge="1">
          <mxGeometry relative="1" as="geometry">
            <mxPoint x="315" y="600" as="sourcePoint" />
            <mxPoint x="270" y="400" as="targetPoint" />
            <Array as="points">
              <mxPoint x="173" y="399" />
            </Array>
          </mxGeometry>
        </mxCell>
        <mxCell id="7vCb-fMm4ji55Pu-p20Z-21" value="&lt;font color=&quot;#000000&quot; style=&quot;font-size: 14px;&quot;&gt;Pare-feu&lt;/font&gt;" style="text;html=1;align=center;verticalAlign=middle;resizable=0;points=[];autosize=1;strokeColor=none;fillColor=none;" parent="1" vertex="1">
          <mxGeometry x="315" y="460" width="80" height="30" as="geometry" />
        </mxCell>
        <mxCell id="7vCb-fMm4ji55Pu-p20Z-23" value="&lt;font color=&quot;#000000&quot; style=&quot;font-size: 14px;&quot;&gt;Serveur Linux&lt;/font&gt;" style="text;html=1;align=center;verticalAlign=middle;resizable=0;points=[];autosize=1;" parent="1" vertex="1">
          <mxGeometry x="540" y="367" width="110" height="30" as="geometry" />
        </mxCell>
        <mxCell id="7vCb-fMm4ji55Pu-p20Z-24" value="&lt;font color=&quot;#000000&quot; style=&quot;font-size: 14px;&quot;&gt;Poste client Linux&lt;/font&gt;" style="text;html=1;align=center;verticalAlign=middle;resizable=0;points=[];autosize=1;strokeColor=none;fillColor=none;" parent="1" vertex="1">
          <mxGeometry x="540.5" y="477" width="130" height="30" as="geometry" />
        </mxCell>
        <mxCell id="1IY3AAUBAofLbIN67G_t-1" value="" style="edgeStyle=orthogonalEdgeStyle;rounded=0;orthogonalLoop=1;jettySize=auto;html=1;endArrow=none;endFill=0;strokeColor=#000000;" parent="1" target="1IY3AAUBAofLbIN67G_t-2" edge="1">
          <mxGeometry relative="1" as="geometry">
            <mxPoint x="475" y="890" as="sourcePoint" />
            <mxPoint x="380" y="763" as="targetPoint" />
            <Array as="points">
              <mxPoint x="440" y="890" />
              <mxPoint x="440" y="762" />
            </Array>
          </mxGeometry>
        </mxCell>
        <mxCell id="1IY3AAUBAofLbIN67G_t-2" value="" style="shape=mxgraph.cisco.security.firewall;sketch=0;html=1;pointerEvents=1;dashed=0;fillColor=#036897;strokeColor=#ffffff;strokeWidth=2;verticalLabelPosition=bottom;verticalAlign=top;align=center;outlineConnect=0;" parent="1" vertex="1">
          <mxGeometry x="330" y="713" width="50" height="97" as="geometry" />
        </mxCell>
        <mxCell id="1IY3AAUBAofLbIN67G_t-3" value="" style="edgeStyle=orthogonalEdgeStyle;rounded=0;orthogonalLoop=1;jettySize=auto;html=1;endArrow=none;endFill=0;strokeColor=#000000;" parent="1" edge="1">
          <mxGeometry relative="1" as="geometry">
            <mxPoint x="487" y="761" as="sourcePoint" />
            <mxPoint x="380" y="763" as="targetPoint" />
            <Array as="points">
              <mxPoint x="380" y="761" />
            </Array>
          </mxGeometry>
        </mxCell>
        <mxCell id="1IY3AAUBAofLbIN67G_t-4" value="" style="shape=mxgraph.cisco.servers.fileserver;sketch=0;html=1;pointerEvents=1;dashed=0;fillColor=#036897;strokeColor=#ffffff;strokeWidth=2;verticalLabelPosition=bottom;verticalAlign=top;align=center;outlineConnect=0;" parent="1" vertex="1">
          <mxGeometry x="487" y="630" width="43" height="62" as="geometry" />
        </mxCell>
        <mxCell id="1IY3AAUBAofLbIN67G_t-6" value="" style="shape=mxgraph.cisco.computers_and_peripherals.pc;sketch=0;html=1;pointerEvents=1;dashed=0;fillColor=#036897;strokeColor=#ffffff;strokeWidth=2;verticalLabelPosition=bottom;verticalAlign=top;align=center;outlineConnect=0;" parent="1" vertex="1">
          <mxGeometry x="469.5" y="840" width="78" height="70" as="geometry" />
        </mxCell>
        <mxCell id="1IY3AAUBAofLbIN67G_t-7" value="" style="edgeStyle=orthogonalEdgeStyle;rounded=0;orthogonalLoop=1;jettySize=auto;html=1;endArrow=none;endFill=0;strokeColor=#000000;entryX=1;entryY=0.5;entryDx=0;entryDy=0;entryPerimeter=0;" parent="1" source="1IY3AAUBAofLbIN67G_t-4" target="1IY3AAUBAofLbIN67G_t-2" edge="1">
          <mxGeometry relative="1" as="geometry">
            <mxPoint x="380" y="795" as="targetPoint" />
            <Array as="points">
              <mxPoint x="440" y="661" />
              <mxPoint x="440" y="762" />
            </Array>
          </mxGeometry>
        </mxCell>
        <mxCell id="1IY3AAUBAofLbIN67G_t-8" value="&lt;font color=&quot;#000000&quot; style=&quot;font-size: 14px;&quot;&gt;Pare-feu&lt;/font&gt;" style="text;html=1;align=center;verticalAlign=middle;resizable=0;points=[];autosize=1;strokeColor=none;fillColor=none;" parent="1" vertex="1">
          <mxGeometry x="315" y="823" width="80" height="30" as="geometry" />
        </mxCell>
        <mxCell id="1IY3AAUBAofLbIN67G_t-9" value="&lt;font color=&quot;#000000&quot; style=&quot;font-size: 14px;&quot;&gt;Serveur Windows&lt;/font&gt;" style="text;html=1;align=center;verticalAlign=middle;resizable=0;points=[];autosize=1;strokeColor=none;fillColor=none;" parent="1" vertex="1">
          <mxGeometry x="540.5" y="630" width="130" height="30" as="geometry" />
        </mxCell>
        <mxCell id="1IY3AAUBAofLbIN67G_t-10" value="&lt;span style=&quot;font-size: 14px;&quot;&gt;Poste Windows&lt;/span&gt;" style="text;html=1;align=center;verticalAlign=middle;resizable=0;points=[];autosize=1;" parent="1" vertex="1">
          <mxGeometry x="547.5" y="726" width="120" height="30" as="geometry" />
        </mxCell>
        <mxCell id="1IY3AAUBAofLbIN67G_t-11" value="&lt;font color=&quot;#000000&quot; style=&quot;font-size: 14px;&quot;&gt;Poste de contrÃ´le (Linux)&lt;/font&gt;" style="text;html=1;align=center;verticalAlign=middle;resizable=0;points=[];autosize=1;strokeColor=none;fillColor=none;" parent="1" vertex="1">
          <mxGeometry x="540" y="840" width="180" height="30" as="geometry" />
        </mxCell>
        <mxCell id="1IY3AAUBAofLbIN67G_t-13" value="" style="shape=mxgraph.cisco.computers_and_peripherals.pc;sketch=0;html=1;pointerEvents=1;dashed=0;fillColor=#036897;strokeColor=#ffffff;strokeWidth=2;verticalLabelPosition=bottom;verticalAlign=top;align=center;outlineConnect=0;" parent="1" vertex="1">
          <mxGeometry x="469.5" y="713" width="78" height="70" as="geometry" />
        </mxCell>
        <mxCell id="1IY3AAUBAofLbIN67G_t-15" value="" style="endArrow=none;html=1;rounded=0;entryX=0;entryY=0.5;entryDx=0;entryDy=0;entryPerimeter=0;" parent="1" source="7vCb-fMm4ji55Pu-p20Z-7" target="1IY3AAUBAofLbIN67G_t-2" edge="1">
          <mxGeometry width="50" height="50" relative="1" as="geometry">
            <mxPoint x="400" y="640" as="sourcePoint" />
            <mxPoint x="450" y="590" as="targetPoint" />
            <Array as="points">
              <mxPoint x="173" y="760" />
            </Array>
          </mxGeometry>
        </mxCell>
        <mxCell id="1IY3AAUBAofLbIN67G_t-16" value="" style="shape=flexArrow;endArrow=classic;startArrow=classic;html=1;rounded=0;exitX=0.5;exitY=0;exitDx=0;exitDy=0;exitPerimeter=0;" parent="1" source="1IY3AAUBAofLbIN67G_t-2" target="7vCb-fMm4ji55Pu-p20Z-1" edge="1">
          <mxGeometry width="100" height="100" relative="1" as="geometry">
            <mxPoint x="295" y="653" as="sourcePoint" />
            <mxPoint x="395" y="553" as="targetPoint" />
          </mxGeometry>
        </mxCell>
        <mxCell id="1IY3AAUBAofLbIN67G_t-17" value="&lt;font style=&quot;font-size: 14px;&quot;&gt;VPN site Ã  site&lt;/font&gt;" style="text;html=1;align=center;verticalAlign=middle;whiteSpace=wrap;rounded=0;" parent="1" vertex="1">
          <mxGeometry x="360" y="570" width="105" height="30" as="geometry" />
        </mxCell>
        <mxCell id="TeyS7SxQ-fJGCoSCf6A5-1" value="&lt;font style=&quot;font-size: 24px;&quot;&gt;Succursale&lt;/font&gt;&lt;div&gt;&lt;font style=&quot;font-size: 18px;&quot;&gt;192.168.1.0/24&lt;/font&gt;&lt;/div&gt;" style="text;html=1;align=center;verticalAlign=middle;whiteSpace=wrap;rounded=0;" parent="1" vertex="1">
          <mxGeometry x="700" y="417" width="60" height="30" as="geometry" />
        </mxCell>
        <mxCell id="TeyS7SxQ-fJGCoSCf6A5-2" value="&lt;font style=&quot;font-size: 24px;&quot;&gt;RÃ©seau principal&lt;/font&gt;&lt;div&gt;&lt;font style=&quot;font-size: 18px;&quot;&gt;10.10.10.0/24&lt;/font&gt;&lt;/div&gt;" style="text;html=1;align=center;verticalAlign=middle;whiteSpace=wrap;rounded=0;" parent="1" vertex="1">
          <mxGeometry x="700" y="746.5" width="60" height="30" as="geometry" />
        </mxCell>
      </root>
    </mxGraphModel>
  </diagram>
</mxfile>
